<?xml version="1.0" encoding="utf-8"?>
<!-- Generator: Adobe Illustrator 16.0.0, SVG Export Plug-In . SVG Version: 6.00 Build 0)  -->
<!DOCTYPE svg PUBLIC "-//W3C//DTD SVG 1.1//EN" "http://www.w3.org/Graphics/SVG/1.1/DTD/svg11.dtd">
<svg version="1.1" id="Layer_1" xmlns="http://www.w3.org/2000/svg" xmlns:xlink="http://www.w3.org/1999/xlink" x="0px" y="0px"
	 width="164px" height="123px" viewBox="-13.645 -10.289 164 123" enable-background="new -13.645 -10.289 164 123"
	 xml:space="preserve">
<filter  id="glow">
	<feGaussianBlur  result="blur" stdDeviation="10"></feGaussianBlur>
	<feMerge>
		<feMergeNode  in="blur"></feMergeNode>
		<feMergeNode  in="SourceGraphic"></feMergeNode>
	</feMerge>
</filter>
<g filter="url(#glow)">
	<path fill="#FFFFFF" stroke="#FFFFFF" stroke-miterlimit="10" d="M135.943,78.531c-13.391-10.062-25.588-19.428-38.014-28.481c-6.979-5.088-13.271-11.357-22.246-13.273
		c-12.676-2.709-23.267,0.846-32.139,10.051c-3.801,3.943-4.383,7.179,1.022,10.73c7.041,4.62,13.429,10.229,20.328,15.077
		c3.213,2.259,3.969,3.785,1.154,7.14c-5.416,6.459-10.42,13.276-15.354,20.119c-2.452,3.399-4.264,3.063-7.399,0.614
		c-12.633-9.854-25.437-19.5-38.389-28.928c-3.675-2.676-4.863-5.389-4.246-9.93C5.095,29.037,27.722,5.639,59.534,1.141
		c30-4.242,59.125,12.885,71.547,42.292C135.534,53.974,136.288,65.183,135.943,78.531z"/>
</g>
</svg>
