<?xml version="1.0" encoding="utf-8"?>
<!-- Generator: Adobe Illustrator 16.0.0, SVG Export Plug-In . SVG Version: 6.00 Build 0)  -->
<!DOCTYPE svg PUBLIC "-//W3C//DTD SVG 1.1//EN" "http://www.w3.org/Graphics/SVG/1.1/DTD/svg11.dtd">
<svg version="1.1" id="Layer_1" xmlns="http://www.w3.org/2000/svg" xmlns:xlink="http://www.w3.org/1999/xlink" x="0px" y="0px"
	 width="136.755px" height="194.156px" viewBox="-0.501 -0.501 136.755 194.156"
	 enable-background="new -0.501 -0.501 136.755 194.156" xml:space="preserve">
<g>
	<path fill="#FFFFFF" stroke="#ff0000" stroke-miterlimit="10" d="M135.681,78.03c0.344-13.347-0.41-24.557-4.863-35.099
		C118.396,13.525,89.271-3.603,59.271,0.64C27.46,5.138,4.833,28.537,0.398,61.15c-0.619,4.541,0.572,7.253,4.246,9.928
		c12.955,9.429,25.758,19.073,38.391,28.925c3.137,2.445,4.947,2.785,7.4-0.615c4.934-6.84,9.938-13.66,15.354-20.118
		c2.814-3.354,2.059-4.881-1.154-7.14c-6.9-4.85-13.287-10.456-20.328-15.079c-5.406-3.549-4.824-6.784-1.023-10.729
		c8.873-9.205,19.461-12.761,32.139-10.051c8.975,1.917,15.266,8.188,22.246,13.274C110.095,58.603,122.291,67.969,135.681,78.03z
		 M0.333,115.387c-1.777,21.928,3.42,40.846,18.205,56.036c19.855,20.397,44.08,26.818,71.104,17.629
		c27.4-9.313,41.978-29.676,45.896-58.133c0.61-4.444-1.267-6.778-4.377-9.076c-11.984-8.852-24.101-17.545-35.767-26.8
		c-4.055-3.215-5.862-2.174-8.375,1.356c-4.559,6.401-9.188,12.78-14.223,18.802c-3.291,3.938-2.15,6.022,1.572,8.563
		c6.023,4.112,11.506,9.069,17.695,12.896c5.053,3.114,3.783,5.643,0.938,9.26c-10.272,13.054-29.542,15.836-43.915,5.57
		C32.888,139.916,17.062,127.811,0.333,115.387z"/>
	<path fill="#FFFFFF" stroke="#ff0000" stroke-miterlimit="10" d="M135.681,78.03c-13.391-10.062-25.588-19.428-38.014-28.48
		c-6.98-5.088-13.271-11.358-22.246-13.274c-12.676-2.709-23.267,0.846-32.139,10.051c-3.801,3.943-4.383,7.18,1.023,10.729
		c7.041,4.622,13.428,10.229,20.328,15.078c3.213,2.259,3.969,3.786,1.154,7.14c-5.416,6.458-10.42,13.277-15.354,20.118
		c-2.453,3.4-4.264,3.063-7.4,0.615C30.4,90.153,17.597,80.508,4.644,71.08c-3.674-2.677-4.863-5.39-4.246-9.93
		C4.833,28.537,27.46,5.138,59.271,0.64c30-4.242,59.125,12.885,71.546,42.292C135.271,53.473,136.024,64.683,135.681,78.03z"/>
	<path fill="#FFFFFF" stroke="#ff0000" stroke-miterlimit="10" d="M0.333,115.387c16.729,12.424,32.553,24.528,48.756,36.104
		c14.373,10.266,33.639,7.481,43.915-5.57c2.849-3.617,4.113-6.144-0.938-9.26c-6.189-3.822-11.672-8.779-17.695-12.894
		c-3.727-2.541-4.863-4.629-1.572-8.563c5.033-6.021,9.664-12.397,14.223-18.803c2.513-3.53,4.32-4.571,8.375-1.356
		c11.666,9.256,23.781,17.95,35.767,26.799c3.11,2.298,4.987,4.632,4.377,9.076c-3.918,28.457-18.492,48.818-45.896,58.133
		c-27.022,9.189-51.248,2.771-71.104-17.629C3.755,156.233-1.442,137.315,0.333,115.387z"/>
</g>
</svg>
